<?xml version="1.0" standalone="no"?>
<!DOCTYPE svg PUBLIC "-//W3C//DTD SVG 20010904//EN"
 "http://www.w3.org/TR/2001/REC-SVG-20010904/DTD/svg10.dtd">
<svg version="1.0" xmlns="http://www.w3.org/2000/svg"
 width="280.000000pt" height="280.000000pt" viewBox="0 0 280.000000 280.000000"
 preserveAspectRatio="xMidYMid meet">
<metadata>
Created by potrace 1.14, written by Peter Selinger 2001-2017
</metadata>
<g transform="translate(0.000000,280.000000) scale(0.100000,-0.100000)"
fill="#000000" stroke="none">
<path d="M2175 1700 c-3 -5 -19 -47 -35 -92 -25 -74 -86 -245 -170 -483 l-28
-80 31 -6 c18 -3 35 -3 38 0 3 3 27 67 53 141 27 74 79 222 117 328 38 106 69
195 69 198 0 9 -69 4 -75 -6z"/>
<path d="M872 1678 c-7 -7 -12 -15 -12 -20 0 -4 -24 -58 -54 -120 -29 -62 -73
-153 -96 -203 -45 -96 -92 -195 -98 -207 -2 -5 14 -8 35 -8 l38 0 44 95 44 95
116 0 116 0 48 -95 c46 -93 48 -95 82 -95 19 0 35 2 35 4 0 2 -27 60 -60 130
-142 298 -177 373 -191 404 -15 34 -27 40 -47 20z m108 -314 c0 -2 -40 -4 -90
-4 -49 0 -90 1 -90 3 0 2 14 31 30 65 17 34 30 66 30 70 0 4 8 18 17 31 l17
24 43 -92 c24 -51 43 -95 43 -97z"/>
<path d="M1300 1681 c0 -10 -64 -478 -74 -538 -3 -20 1 -23 30 -23 38 0 33
-19 65 220 11 85 22 157 24 158 2 2 45 -82 96 -187 62 -127 99 -191 109 -191
10 0 48 64 110 189 52 104 96 188 98 187 2 -3 52 -352 52 -368 0 -4 16 -8 35
-8 19 0 35 4 35 9 0 10 -67 483 -75 529 -3 17 -12 32 -18 32 -7 0 -63 -102
-124 -227 l-111 -228 -111 225 c-62 124 -119 226 -127 228 -7 2 -14 -1 -14 -7z"/>
<path d="M344 1526 c-261 -127 -261 -115 0 -240 111 -53 205 -96 209 -96 5 0
7 13 5 29 -3 28 -15 36 -162 108 l-158 79 88 43 c49 24 122 59 162 79 64 31
72 38 72 63 0 17 -5 29 -12 28 -7 0 -99 -42 -204 -93z"/>
<path d="M2300 1591 c0 -27 8 -33 160 -107 88 -42 158 -79 156 -81 -2 -2 -73
-37 -157 -78 -145 -70 -154 -76 -157 -105 -2 -20 1 -30 10 -30 7 1 101 43 208
95 174 83 195 96 198 119 3 25 -4 30 -100 75 -57 27 -145 69 -197 95 -52 25
-100 46 -107 46 -9 0 -14 -11 -14 -29z"/>
</g>
</svg>
